<?xml version="1.0" encoding="UTF-8"?>
<svg width="567px" height="365px" viewBox="0 0 567 365" version="1.1" xmlns="http://www.w3.org/2000/svg" xmlns:xlink="http://www.w3.org/1999/xlink">
    <!-- Generator: Sketch 41.2 (35397) - http://www.bohemiancoding.com/sketch -->
    <title>logo</title>
    <desc>Created with Sketch.</desc>
    <defs></defs>
    <g id="Page-1" stroke="none" stroke-width="1" fill="none" fill-rule="evenodd">
        <path d="M161.562829,-0.135444534 L455.183349,20.3799804 C521.9646,25.0460226 569.357906,74.8390145 561.04243,131.574118 C561.04243,131.574118 558.941449,145.908765 557.890958,153.076088 C552.18401,192.013639 540.770115,269.888739 540.770115,269.888739 C532.45322,326.633523 471.546028,368.849721 404.792893,364.185643 L111.172373,343.670218 C44.3911216,339.004176 -3.00218483,289.211184 5.31329115,232.476081 L25.5856066,94.1614592 C33.9025015,37.4166751 94.8096936,-4.79952229 161.562829,-0.135444534 Z M440.335935,292.709085 C440.335935,292.709085 454.708324,300.033455 466.628393,295.514231 L476.907218,243.027002 C476.907218,243.027002 506.765594,248.440694 513.864244,246.51987 C520.962894,244.599046 541.255809,140.559791 538.176217,136.05348 C535.096625,131.547169 496.903744,124.667075 472.56566,136.773461 L440.335935,292.709085 Z M393.769124,160.935412 C386.767524,166.739907 396.24848,140.588854 401.916054,136.903729 C407.583628,133.218604 432.69778,126.632689 450.681283,135.403249 C467.548089,143.629196 438.150998,242.789443 438.150998,242.789443 C438.150998,242.789443 430.404903,248.643087 412.77509,248.643087 C395.145277,248.643087 390.014191,244.422722 385.175193,237.420403 C380.336195,230.418084 374.09775,205.151233 392.750018,189.815282 C411.402285,174.479332 419.965028,179.157508 426.46803,173.682956 C434.896197,166.587704 437.047708,154.044507 423.354767,154.044507 C416.926108,154.044507 405.587577,154.044507 393.769124,160.935412 Z M294.877419,248.647236 C294.877419,248.647236 303.408697,249.410931 318.959126,248.804024 C330.527113,186.263907 335.613655,161.08617 335.613655,161.08617 C335.613655,161.08617 344.083796,155.152504 353.9144,161.210609 C353.9144,161.210609 348.311305,194.693452 336.288636,248.804024 L362.2806,248.804024 C362.2806,248.804024 371.694256,191.282815 383.031029,136.601145 C362.151434,133.483101 347.811813,126.595911 315.600432,136.624795 C305.856236,198.50939 294.877419,248.647236 294.877419,248.647236 Z M288.724636,160.659571 C284.823849,157.167718 263.531709,152.280323 260.034489,161.545236 C256.537268,170.810149 256.476167,174.548612 271.379216,182.168962 C286.282266,189.789313 293.371466,200.474492 285.907107,226.048362 C278.442748,251.622232 253.257354,249.400511 241.651588,248.130834 C230.045822,246.861157 219.16093,245.107708 219.723205,242.464139 C220.285479,239.82057 225.785786,218.928239 228.715612,220.68831 C231.645439,222.448381 242.273581,224.114248 252.246178,222.856991 C262.218776,221.599735 265.518364,210.878829 258.782641,204.372207 C252.046918,197.865585 256.534771,203.444897 242.923509,194.146154 C229.312246,184.847411 233.412071,161.680892 233.412071,161.680892 C233.412071,161.680892 237.701459,131.62523 262.609651,130.647593 C287.517843,129.669956 298.841854,135.753407 298.841854,135.753407 C298.841854,135.753407 291.528239,163.169261 288.724636,160.659571 Z M168.441913,131.160944 C166.390761,142.836462 165.676166,143.924393 163.255492,155.144589 L180.281893,155.021666 C180.281893,155.021666 165.256922,245.713501 165.256922,248.643087 C165.256922,251.572674 192.507165,251.118539 192.507165,248.643087 C192.507165,246.167636 202.33796,175.531247 206.084467,155.021666 C206.084467,155.021666 213.899823,155.021666 221.024444,155.021666 C223.500084,144.356662 224.727189,140.598683 226.427514,131.160944 C211.468895,131.160944 210.769035,131.160944 210.769035,131.160944 C210.769035,131.160944 214.503317,112.890519 216.798093,103.071743 C196.927795,102.142005 201.535633,103.071743 190.431656,103.071743 C187.746222,118.5654 186.73397,120.66738 185.250073,131.160944 C175.818827,130.244009 176.947777,131.160944 168.441913,131.160944 Z M130.454845,130.397146 C121.974515,185.918013 113.160005,232.515927 109.292259,249.068754 C118.383418,250.846664 136.177224,249.068754 136.177224,249.068754 C136.177224,249.068754 156.736321,131.614643 156.941528,130.397146 C149.492544,129.160978 135.427961,129.470766 130.454845,130.397146 Z M58.9453483,73.4851124 C52.0158782,107.807967 46.36823,146.983238 46.36823,146.983238 L28.3474102,244.266296 C28.3474102,244.266296 45.6340742,248.903628 56.7588902,248.903628 C67.8837062,248.903628 90.0536779,248.045248 93.2488948,239.012822 C105.416682,204.616212 112.438515,161.843159 115.036685,136.321375 C115.036685,133.661762 103.848,124.076899 74.5276148,136.794747 C76.7542756,114.970335 84.4726116,73.4851124 84.4726116,73.4851124 C84.4726116,73.4851124 67.78593,70.8141059 58.9453483,73.4851124 Z M131.085103,118.895774 C144.834009,119.304372 149.306361,120.212015 159.347536,119.068699 C161.76221,113.428707 165.23007,97.2366715 164.374234,97.2366715 C162.293184,97.2366715 136.338468,97.0087752 135.53834,97.0087752 C134.738212,97.0087752 132.672963,105.645402 131.085103,118.895774 Z M481.453873,218.633756 C481.453873,220.821172 494.662139,222.459849 498.598794,221.003407 C502.535448,219.546965 513.743715,157.030153 513.743715,157.030153 C513.743715,157.030153 502.811116,150.177328 493.940923,156.923231 C493.940923,156.923231 481.453873,216.44634 481.453873,218.633756 Z M69.9601806,161.302278 C63.6389334,195.698877 59.2131382,214.746096 58.0866004,223.524581 C60.0748811,226.178745 68.9224261,225.701003 73.6409364,220.847375 C76.2617415,216.981786 86.319553,186.383703 88.6546121,155.686193 C79.9377984,154.555672 72.8622604,159.084757 69.9601806,161.302278 Z M414.043698,198.525809 C411.608824,200.241721 403.058497,207.196051 403.058497,218.524345 C403.058497,229.85264 420.008201,226.456932 421.179329,223.93231 C422.350458,221.407689 428.264694,195.937361 427.118564,194.609728 C425.972435,193.282095 416.478573,196.809898 414.043698,198.525809 Z" id="Combined-Shape" fill="#78D9E2"></path>
    </g>
</svg>