<?xml version="1.0" encoding="UTF-8"?>
<svg width="528px" height="251px" viewBox="0 0 528 251" version="1.1" xmlns="http://www.w3.org/2000/svg" xmlns:xlink="http://www.w3.org/1999/xlink">
    <!-- Generator: Sketch 41.2 (35397) - http://www.bohemiancoding.com/sketch -->
    <title>logo</title>
    <desc>Created with Sketch.</desc>
    <defs></defs>
    <g id="Page-1" stroke="none" stroke-width="1" fill="none" fill-rule="evenodd">
        <path d="M419.988525,233.411087 C419.988525,233.411087 434.360914,240.735456 446.280983,236.216233 L456.559808,183.729003 C456.559808,183.729003 486.418184,189.142695 493.516833,187.221872 C500.615483,185.301048 520.908399,81.261793 517.828807,76.7554818 C514.749215,72.2491705 476.556334,65.3690771 452.21825,77.4754622 L419.988525,233.411087 Z M373.421714,101.637413 C366.420114,107.441909 375.90107,81.2908556 381.568644,77.6057304 C387.236218,73.9206053 412.350369,67.3346906 430.333873,76.105251 C447.200679,84.3311978 417.803588,183.491445 417.803588,183.491445 C417.803588,183.491445 410.057492,189.345089 392.42768,189.345089 C374.797867,189.345089 369.666781,185.124723 364.827783,178.122405 C359.988785,171.120086 353.75034,145.853234 372.402607,130.517284 C391.054875,115.181333 399.617618,119.859509 406.12062,114.384957 C414.548787,107.289706 416.700297,94.7465083 403.007357,94.7465083 C396.578698,94.7465083 385.240167,94.7465083 373.421714,101.637413 Z M274.530009,189.349237 C274.530009,189.349237 283.061287,190.112933 298.611715,189.506026 C310.179703,126.965909 315.266245,101.788172 315.266245,101.788172 C315.266245,101.788172 323.736386,95.8545057 333.56699,101.912611 C333.56699,101.912611 327.963895,135.395453 315.941226,189.506026 L341.933189,189.506026 C341.933189,189.506026 351.346846,131.984817 362.683619,77.3031467 C341.804024,74.1851022 327.464403,67.2979123 295.253022,77.3267961 C285.508825,139.211391 274.530009,189.349237 274.530009,189.349237 Z M268.377226,101.361572 C264.476438,97.8697192 243.184299,92.982325 239.687079,102.247238 C236.189858,111.51215 236.128757,115.250613 251.031806,122.870964 C265.934856,130.491314 273.024055,141.176493 265.559697,166.750363 C258.095338,192.324233 232.909943,190.102513 221.304178,188.832835 C209.698412,187.563158 198.813519,185.809709 199.375794,183.16614 C199.938069,180.522571 205.438376,159.630241 208.368202,161.390312 C211.298028,163.150383 221.926171,164.816249 231.898768,163.558993 C241.871365,162.301737 245.170954,151.58083 238.435231,145.074208 C231.699508,138.567587 236.18736,144.146899 222.576098,134.848156 C208.964836,125.549413 213.064661,102.382894 213.064661,102.382894 C213.064661,102.382894 217.354049,72.3272314 242.262241,71.3495946 C267.170433,70.3719578 278.494444,76.4554087 278.494444,76.4554087 C278.494444,76.4554087 271.180828,103.871263 268.377226,101.361572 Z M148.094503,71.8629452 C146.043351,83.5384636 145.328756,84.6263944 142.908081,95.8465907 L159.934483,95.7236674 C159.934483,95.7236674 144.909512,186.415502 144.909512,189.345089 C144.909512,192.274675 172.159755,191.82054 172.159755,189.345089 C172.159755,186.869637 181.99055,116.233249 185.737057,95.7236674 C185.737057,95.7236674 193.552413,95.7236674 200.677033,95.7236674 C203.152674,85.0586633 204.379779,81.3006845 206.080104,71.8629452 C191.121485,71.8629452 190.421625,71.8629452 190.421625,71.8629452 C190.421625,71.8629452 194.155907,53.5925202 196.450682,43.7737447 C176.580385,42.8440065 181.188222,43.7737447 170.084246,43.7737447 C167.398812,59.2674012 166.38656,61.3693812 164.902663,71.8629452 C155.471416,70.9460109 156.600367,71.8629452 148.094503,71.8629452 Z M110.107435,71.0991477 C101.627105,126.620014 92.8125944,173.217929 88.9448488,189.770755 C98.0360081,191.548665 115.829814,189.770755 115.829814,189.770755 C115.829814,189.770755 136.388911,72.316645 136.594118,71.0991477 C129.145134,69.86298 115.080551,70.1727671 110.107435,71.0991477 Z M38.5979381,14.187114 C31.668468,48.5099687 26.0208197,87.6852392 26.0208197,87.6852392 L8,184.968297 C8,184.968297 25.2866639,189.605629 36.4114799,189.605629 C47.5362959,189.605629 69.7062677,188.74725 72.9014845,179.714824 C85.0692716,145.318213 92.0911044,102.54516 94.6892748,77.0233762 C94.6892748,74.3637636 83.5005903,64.7789009 54.1802046,77.4967481 C56.4068654,55.6723361 64.1252013,14.187114 64.1252013,14.187114 C64.1252013,14.187114 47.4385198,11.5161075 38.5979381,14.187114 Z M110.737693,59.597776 C124.486599,60.0063732 128.958951,60.9140168 139.000126,59.7707002 C141.414799,54.1307088 144.88266,37.938673 144.026824,37.938673 C141.945774,37.938673 115.991058,37.7107768 115.19093,37.7107768 C114.390802,37.7107768 112.325553,46.3474041 110.737693,59.597776 Z M461.106462,159.335757 C461.106462,161.523174 474.314729,163.161851 478.251383,161.705409 C482.188038,160.248967 493.396305,97.7321548 493.396305,97.7321548 C493.396305,97.7321548 482.463706,90.8793292 473.593512,97.6252323 C473.593512,97.6252323 461.106462,157.148341 461.106462,159.335757 Z M49.6127704,102.00428 C43.2915232,136.400878 38.865728,155.448098 37.7391902,164.226582 C39.7274709,166.880746 48.5750159,166.403004 53.2935262,161.549376 C55.9143312,157.683787 65.9721427,127.085705 68.3072018,96.3881944 C59.5903882,95.2576731 52.5148501,99.7867588 49.6127704,102.00428 Z M393.696288,139.227811 C391.261414,140.943722 382.711087,147.898052 382.711087,159.226347 C382.711087,170.554642 399.660791,167.158934 400.831919,164.634312 C402.003047,162.109691 407.917284,136.639363 406.771154,135.311729 C405.625025,133.984096 396.131162,137.5119 393.696288,139.227811 Z" id="Combined-Shape" fill="#78D9E2"></path>
    </g>
</svg>