<?xml version="1.0" encoding="UTF-8"?>
<svg width="528px" height="528px" viewBox="0 0 528 528" version="1.1" xmlns="http://www.w3.org/2000/svg" xmlns:xlink="http://www.w3.org/1999/xlink">
    <!-- Generator: Sketch 41.2 (35397) - http://www.bohemiancoding.com/sketch -->
    <title>square</title>
    <desc>Created with Sketch.</desc>
    <defs></defs>
    <g id="Page-1" stroke="none" stroke-width="1" fill="none" fill-rule="evenodd">
        <path d="M419.988525,379.411087 C419.988525,379.411087 434.360914,386.735456 446.280983,382.216233 L456.559808,329.729003 C456.559808,329.729003 486.418184,335.142695 493.516833,333.221872 C500.615483,331.301048 520.908399,227.261793 517.828807,222.755482 C514.749215,218.249171 476.556334,211.369077 452.21825,223.475462 L419.988525,379.411087 Z M373.421714,247.637413 C366.420114,253.441909 375.90107,227.290856 381.568644,223.60573 C387.236218,219.920605 412.350369,213.334691 430.333873,222.105251 C447.200679,230.331198 417.803588,329.491445 417.803588,329.491445 C417.803588,329.491445 410.057492,335.345089 392.42768,335.345089 C374.797867,335.345089 369.666781,331.124723 364.827783,324.122405 C359.988785,317.120086 353.75034,291.853234 372.402607,276.517284 C391.054875,261.181333 399.617618,265.859509 406.12062,260.384957 C414.548787,253.289706 416.700297,240.746508 403.007357,240.746508 C396.578698,240.746508 385.240167,240.746508 373.421714,247.637413 Z M274.530009,335.349237 C274.530009,335.349237 283.061287,336.112933 298.611715,335.506026 C310.179703,272.965909 315.266245,247.788172 315.266245,247.788172 C315.266245,247.788172 323.736386,241.854506 333.56699,247.912611 C333.56699,247.912611 327.963895,281.395453 315.941226,335.506026 L341.933189,335.506026 C341.933189,335.506026 351.346846,277.984817 362.683619,223.303147 C341.804024,220.185102 327.464403,213.297912 295.253022,223.326796 C285.508825,285.211391 274.530009,335.349237 274.530009,335.349237 Z M268.377226,247.361572 C264.476438,243.869719 243.184299,238.982325 239.687079,248.247238 C236.189858,257.51215 236.128757,261.250613 251.031806,268.870964 C265.934856,276.491314 273.024055,287.176493 265.559697,312.750363 C258.095338,338.324233 232.909943,336.102513 221.304178,334.832835 C209.698412,333.563158 198.813519,331.809709 199.375794,329.16614 C199.938069,326.522571 205.438376,305.630241 208.368202,307.390312 C211.298028,309.150383 221.926171,310.816249 231.898768,309.558993 C241.871365,308.301737 245.170954,297.58083 238.435231,291.074208 C231.699508,284.567587 236.18736,290.146899 222.576098,280.848156 C208.964836,271.549413 213.064661,248.382894 213.064661,248.382894 C213.064661,248.382894 217.354049,218.327231 242.262241,217.349595 C267.170433,216.371958 278.494444,222.455409 278.494444,222.455409 C278.494444,222.455409 271.180828,249.871263 268.377226,247.361572 Z M148.094503,217.862945 C146.043351,229.538464 145.328756,230.626394 142.908081,241.846591 L159.934483,241.723667 C159.934483,241.723667 144.909512,332.415502 144.909512,335.345089 C144.909512,338.274675 172.159755,337.82054 172.159755,335.345089 C172.159755,332.869637 181.99055,262.233249 185.737057,241.723667 C185.737057,241.723667 193.552413,241.723667 200.677033,241.723667 C203.152674,231.058663 204.379779,227.300684 206.080104,217.862945 C191.121485,217.862945 190.421625,217.862945 190.421625,217.862945 C190.421625,217.862945 194.155907,199.59252 196.450682,189.773745 C176.580385,188.844007 181.188222,189.773745 170.084246,189.773745 C167.398812,205.267401 166.38656,207.369381 164.902663,217.862945 C155.471416,216.946011 156.600367,217.862945 148.094503,217.862945 Z M110.107435,217.099148 C101.627105,272.620014 92.8125944,319.217929 88.9448488,335.770755 C98.0360081,337.548665 115.829814,335.770755 115.829814,335.770755 C115.829814,335.770755 136.388911,218.316645 136.594118,217.099148 C129.145134,215.86298 115.080551,216.172767 110.107435,217.099148 Z M38.5979381,160.187114 C31.668468,194.509969 26.0208197,233.685239 26.0208197,233.685239 L8,330.968297 C8,330.968297 25.2866639,335.605629 36.4114799,335.605629 C47.5362959,335.605629 69.7062677,334.74725 72.9014845,325.714824 C85.0692716,291.318213 92.0911044,248.54516 94.6892748,223.023376 C94.6892748,220.363764 83.5005903,210.778901 54.1802046,223.496748 C56.4068654,201.672336 64.1252013,160.187114 64.1252013,160.187114 C64.1252013,160.187114 47.4385198,157.516108 38.5979381,160.187114 Z M110.737693,205.597776 C124.486599,206.006373 128.958951,206.914017 139.000126,205.7707 C141.414799,200.130709 144.88266,183.938673 144.026824,183.938673 C141.945774,183.938673 115.991058,183.710777 115.19093,183.710777 C114.390802,183.710777 112.325553,192.347404 110.737693,205.597776 Z M461.106462,305.335757 C461.106462,307.523174 474.314729,309.161851 478.251383,307.705409 C482.188038,306.248967 493.396305,243.732155 493.396305,243.732155 C493.396305,243.732155 482.463706,236.879329 473.593512,243.625232 C473.593512,243.625232 461.106462,303.148341 461.106462,305.335757 Z M49.6127704,248.00428 C43.2915232,282.400878 38.865728,301.448098 37.7391902,310.226582 C39.7274709,312.880746 48.5750159,312.403004 53.2935262,307.549376 C55.9143312,303.683787 65.9721427,273.085705 68.3072018,242.388194 C59.5903882,241.257673 52.5148501,245.786759 49.6127704,248.00428 Z M393.696288,285.227811 C391.261414,286.943722 382.711087,293.898052 382.711087,305.226347 C382.711087,316.554642 399.660791,313.158934 400.831919,310.634312 C402.003047,308.109691 407.917284,282.639363 406.771154,281.311729 C405.625025,279.984096 396.131162,283.5119 393.696288,285.227811 Z" id="Combined-Shape" fill="#78D9E2"></path>
    </g>
</svg>